<svg class="h-8 w-8 lg:h-12 lg:w-12 mb-4" viewBox="0 0 48 48" fill="none" xmlns="http://www.w3.org/2000/svg">
          <path d="M0 24C0 10.7452 10.7452 0 24 0V0C37.2548 0 48 10.7452 48 24V24C48 37.2548 37.2548 48 24 48V48C10.7452 48 0 37.2548 0 24V24Z" fill="white" fill-opacity="0.2"></path>
          <path d="M35.3047 24.0039C35.3047 23.5469 35.1055 23.0664 34.7891 22.75L27.1602 15.1328C26.7969 14.7695 26.375 14.5937 25.9648 14.5937C24.9687 14.5937 24.2891 15.2852 24.2891 16.1992C24.2891 16.7148 24.5117 17.1133 24.8281 17.418L27.4531 20.0547L30.043 22.4453L27.4883 22.3047H14.2461C13.1914 22.3047 12.4883 22.9844 12.4883 24.0039C12.4883 25.0117 13.1914 25.7031 14.2461 25.7031H27.4883L30.0547 25.5625L27.4531 27.9531L24.8281 30.5781C24.5117 30.8828 24.2891 31.293 24.2891 31.7969C24.2891 32.7109 24.9687 33.4023 25.9648 33.4023C26.375 33.4023 26.7969 33.2266 27.1484 32.875L34.7891 25.2578C35.1055 24.9414 35.3047 24.4609 35.3047 24.0039Z" fill="white"></path>
        </svg>