<svg class="h-8 w-8 lg:h-12 lg:w-12 mb-4" viewBox="0 0 48 48" fill="none" xmlns="http://www.w3.org/2000/svg">
          <path d="M0 24C0 10.7452 10.7452 0 24 0V0C37.2548 0 48 10.7452 48 24V24C48 37.2548 37.2548 48 24 48V48C10.7452 48 0 37.2548 0 24V24Z" fill="black" fill-opacity="0.1"></path>
          <path d="M13.9297 22.7266C14.7383 22.7266 15.3477 22.1289 15.3477 21.3086V20.582L15.0898 17.207L17.5742 19.8203L20.7734 23.043C21.043 23.3242 21.3945 23.4648 21.7812 23.4648C22.6602 23.4648 23.2812 22.8555 23.2812 21.9766C23.2812 21.5781 23.1172 21.2266 22.8477 20.957L19.625 17.7461L17.0117 15.2734L20.4219 15.5312H21.2656C22.0742 15.5312 22.6836 14.9336 22.6836 14.1016C22.6836 13.2812 22.0859 12.6719 21.2656 12.6719H14.7734C13.332 12.6719 12.4883 13.5156 12.4883 14.957V21.3086C12.4883 22.1289 13.0977 22.7266 13.9297 22.7266ZM26.4453 35.418H32.9258C34.3789 35.418 35.2109 34.5859 35.2109 33.1328V26.793C35.2109 25.9727 34.6016 25.375 33.7812 25.375C32.9609 25.375 32.3633 25.9609 32.3633 26.793V27.5195L32.6094 30.8828L30.1367 28.2812L26.9375 25.0586C26.668 24.7773 26.3047 24.6367 25.9297 24.6367C25.0508 24.6367 24.4297 25.2461 24.4297 26.125C24.4297 26.5117 24.582 26.8633 24.8516 27.1445L28.0742 30.3555L30.6875 32.8164L27.2891 32.5703H26.4453C25.625 32.5703 25.0273 33.168 25.0273 33.9883C25.0273 34.8203 25.625 35.418 26.4453 35.418Z" fill="black"></path>
        </svg>