<svg class="h-8 w-8 lg:h-12 lg:w-12 mb-4" viewBox="0 0 48 48" fill="none" xmlns="http://www.w3.org/2000/svg">
          <path d="M0 24C0 10.7452 10.7452 0 24 0V0C37.2548 0 48 10.7452 48 24V24C48 37.2548 37.2548 48 24 48V48C10.7452 48 0 37.2548 0 24V24Z" fill="white" fill-opacity="0.2"></path>
          <path d="M22.5576 34.4922C23.5674 34.4922 24.3193 33.7295 24.3193 32.7305V29.2715H24.5127C28.0791 29.2715 30.1201 30.582 31.5166 33.1494C32.0322 34.0732 32.6016 34.3633 33.332 34.3633C34.3633 34.3633 35.0078 33.3535 35.0078 31.3555C35.0078 23.7822 31.4736 19.2812 24.5127 19.2812H24.3193V15.8008C24.3193 14.8018 23.5674 14.0068 22.5469 14.0068C21.9023 14.0068 21.4297 14.2646 20.7207 14.9092L12.1699 22.8369C11.7295 23.2451 11.5361 23.7715 11.5361 24.2441C11.5361 24.7061 11.7402 25.2539 12.1699 25.6621L20.7207 33.6328C21.3652 34.2236 21.8916 34.4922 22.5576 34.4922ZM21.7842 31.001C21.7197 31.001 21.666 30.9795 21.6016 30.915L14.748 24.4375C14.6621 24.3623 14.6299 24.3086 14.6299 24.2441C14.6299 24.1797 14.6621 24.1367 14.748 24.0508L21.6016 17.5303C21.6553 17.4873 21.7197 17.4551 21.7734 17.4551C21.8809 17.4551 21.9561 17.5303 21.9561 17.6377V21.376C21.9561 21.623 22.0635 21.7305 22.2998 21.7305H23.5781C29.8516 21.7305 32.5693 25.501 32.6875 30.668C32.6875 30.7324 32.666 30.7754 32.623 30.7754C32.5801 30.7754 32.5479 30.7432 32.5264 30.6787C31.2266 28.0146 28.2402 26.7793 23.5781 26.7793H22.2998C22.0635 26.7793 21.9561 26.8867 21.9561 27.123V30.8184C21.9561 30.9258 21.8809 31.001 21.7842 31.001Z" fill="white"></path>
        </svg>